<?xml version="1.0" encoding="utf-8"?>
<!-- Generator: Adobe Illustrator 22.1.0, SVG Export Plug-In . SVG Version: 6.00 Build 0)  -->
<svg version="1.1" xmlns="http://www.w3.org/2000/svg" xmlns:xlink="http://www.w3.org/1999/xlink" x="0px" y="0px"
	 viewBox="0 0 209.1 51.9" style="enable-background:new 0 0 209.1 51.9;" xml:space="preserve">
<style type="text/css">
	.st0{fill:#FFFFFF;}
</style>
<g id="Capa_2">
</g>
<g id="Capa_1">
	<g>
		<g>
			<g>
				<path class="st0" d="M2.4,51.3c10.3-16.7,21-33.2,32.1-49.4c-0.8-0.2-1.6-0.4-2.3-0.6c0.5,9.2-2.2,17.7-5.2,26.3
					c-0.4,1.2,1.3,2.1,2.1,1.2c7-7.9,13.7-16.2,20-24.7c-0.8-0.1-1.5-0.2-2.3-0.3c1.6,3.9-3.2,11.1-4.8,14.7
					c-1.8,3.9-3.6,7.7-5.3,11.6c-0.5,1,0.6,2.5,1.7,1.7c1.9-1.2,3.8-2.5,5.8-3.7c1.3-0.9,0.1-3-1.3-2.2c-1.9,1.2-3.8,2.5-5.8,3.7
					c0.6,0.6,1.1,1.1,1.7,1.7c2.6-5.7,5.2-11.3,7.8-17c1.6-3.5,4.3-7.3,2.6-11.2c-0.4-1-1.6-1.2-2.3-0.3
					C40.7,11.1,34.2,19.2,27.3,27c0.7,0.4,1.4,0.8,2.1,1.2c3-8.8,5.8-17.6,5.3-27C34.5,0,33-0.4,32.3,0.6
					C21.2,16.8,10.5,33.3,0.2,50C-0.7,51.4,1.5,52.7,2.4,51.3L2.4,51.3z"/>
			</g>
		</g>
		<g>
			<g>
				<g>
					<path class="st0" d="M109.9,8.4c0.1-0.2,0.2-0.4,0.3-0.7c0.1-0.1-2.1-0.5-2.4-0.3c-1,0.9-1.3,2.7-1.8,3.9c-1,2.2-2,4.4-3.1,6.6
						c-2,4.3-4.1,8.5-5.8,12.9c0,0.1,2.3,0.7,2.5,0.2c1.5-3.9,3.4-7.8,5.2-11.6c0.9-1.8,1.7-3.6,2.5-5.3c0.7-1.6,1.6-5.2,2.9-6.4
						c-0.8-0.1-1.6-0.2-2.4-0.3c-0.1,0.2-0.2,0.4-0.3,0.7C107.4,8.2,109.6,8.9,109.9,8.4L109.9,8.4z"/>
				</g>
			</g>
			<g>
				<g>
					<path class="st0" d="M96.2,14.3c3.3-2.4,9.5-6.2,13.7-5.6c1.5,0.2,4.4,3.9,3.8,5.2c-0.4,0.9-2.1,2-2.9,2.5
						c-2.2,1.6-4.5,2.6-7.1,3.4c-0.9,0.3-0.1,1.9,0.4,2.2c5.6,3.2,5.6,9.6,5.5,15.3c0,1,1.8,2.6,1.8,1.1c0.2-7-0.3-14.6-7-18.5
						c0.1,0.7,0.3,1.4,0.4,2.2c4.5-1.3,15.9-7,11.2-13.4c-4.6-6.2-16.5,0.3-20.9,3.4C94.2,12.6,95.3,14.9,96.2,14.3L96.2,14.3z"/>
				</g>
			</g>
		</g>
		<g>
			<path class="st0" d="M54.7,22.4c-0.3,0.7-0.7,1.4-0.9,1.9c-0.5,1.2-0.3,1.4,0.2,1.4c0.2,0,0.4,0,0.7,0c0.3,0,1.8,0.3,1.3,1.4
				c-0.5,1.1-3.1,2.2-4.3,2.2c-0.8,0-1.4-0.4-1.2-1.5c-2.3,1.9-4.1,2.6-6.2,2.6c-1.1,0-3.5-0.1-2.5-2.1c0.2-0.4,0.4-0.8,0.6-1.1
				c2.8-6.1,8.6-8.9,13.1-8.9c0.1,0,0,0.1,0.2,0.6C55.8,19.7,55.2,21.1,54.7,22.4z M45.7,27.6c1.9,0,5.1-2.5,6-4.6
				c0.4-0.9,0.4-1.7-0.2-2.2c-2.7,1.4-5.4,2.8-7,6.2C44.8,27.4,45.2,27.6,45.7,27.6z"/>
			<path class="st0" d="M67.9,21.9c-0.8,0-1-1.4-2-1.5c-0.2,0-0.3,0-0.4,0c-2,0-4.6,1.8-5.9,4.7c-1.1,2.3-0.3,2.7,1.2,3.5
				c0.4,0.2,1.1,0.1,1.6,0c2.1-0.5,3.2-3,4.7-3h0c0,0,1.1,0,0.7,0.9c-0.1,0.3-0.3,0.6-0.5,0.7c-2.9,2.8-4.3,3.4-6.1,3.4
				c-2.8,0-6.1-0.7-3.9-5.5c1.7-3.5,6.8-7.8,9.6-7.8c1.1,0,3.5,1.7,2.7,3.4c-0.2,0.4-0.6,0.7-1.2,1C68.2,21.8,68.1,21.9,67.9,21.9z"
				/>
			<path class="st0" d="M83.1,20.7c-0.6,1.3-1.6,2.7-2,3.5c-0.9,1.9-0.2,0.8,0.3,2.5c0,0.2,0,0.4-0.1,0.6c-0.5,1.1-1.4,1.5-2.4,1.5
				c-0.8,0-1.3-0.6-0.9-1.6c-1.9,1.4-3.4,1.3-4.8,1.3c-0.8,0-3.7,0-2.6-2.2c2.8-6.1,8.2-8.5,12-8.5c1.1,0,1.1-0.3,1.1,0.6
				C83.7,19,83.5,19.9,83.1,20.7z M74.3,25.8c1.7,0,4.7-1.6,5.7-3.7c0.4-0.8,0.4-1.4,0-2c-2.5,1.2-4.9,1.5-6.8,5
				C73.4,25.6,73.8,25.8,74.3,25.8z"/>
			<path class="st0" d="M125,22.4c-0.3,0.7-0.7,1.4-0.9,1.9c-0.5,1.2-0.3,1.4,0.2,1.4c0.2,0,0.4,0,0.7,0c0.3,0,1.8,0.3,1.3,1.4
				c-0.5,1.1-3.1,2.2-4.3,2.2c-0.8,0-1.4-0.4-1.2-1.5c-2.3,1.9-4.1,2.6-6.2,2.6c-1.1,0-3.5-0.1-2.5-2.1c0.2-0.4,0.4-0.8,0.6-1.1
				c2.8-6.1,8.6-8.9,13.1-8.9c0.1,0,0,0.1,0.2,0.6C126.1,19.7,125.6,21.1,125,22.4z M116.1,27.6c1.9,0,5.1-2.5,6-4.6
				c0.4-0.9,0.4-1.7-0.2-2.2c-2.7,1.4-5.4,2.8-7,6.2C115.1,27.4,115.5,27.6,116.1,27.6z"/>
			<path class="st0" d="M139.1,21.2c-0.5,1-0.6,2.2-1.3,3.5c2.2-1.5,4.3-5.7,7-5.7c2.8,0,1.5,5.6-0.2,9.4c-0.5,1-0.9,1.8-1.6,2.5
				c-3.5-0.3,4-7.3,0.3-8.5c-5.2,2.3-5.5,5.2-8.1,6.4c-0.2,0-0.4,0.1-0.5,0.1c-1,0-1-0.5-0.8-1.1c0.3-0.6,0.8-1.3,1.3-2.2
				c0.4-0.6,1.1-2.2,1.5-3.1c0.4-0.8-0.2-1-0.4-1c-1.8,0-6.5,8.4-8.3,8.4c-0.3,0-0.4-0.1-0.5-0.5c-0.8-1.5,0-4,0.8-5.9
				c0.4-0.8,1.2-2.5,2-2.5c1.3,0-0.8,3.1,0,3.8c2.6-0.9,5.4-7.1,7.3-7.1c0.3,0,1.5,0.2,1.8,0.6C139.8,19.2,139.6,20.1,139.1,21.2z"
				/>
			<path class="st0" d="M154.3,18.9c1.6,0,0.9,3.7-0.6,6.9c-1.3,2.9-3.1,5-4.8,5c0,0-0.1,0-0.1-0.1c0.5-2.8,1.3-4.7,2.1-6.4
				c0.9-1.9,1.9-3.4,2.7-5.3C153.9,19,154.1,18.9,154.3,18.9z M157.9,9.5c-1.4,1.3-2.5,2.2-3.7,3.5c-0.8,0.4-1.5,0.5-1.9,0.5
				s-1.2,0-0.9-0.5c3.9-5.6,3.3-4.1,5.7-6.2c0.7,0.1,0.9-0.4,1.4,0C159.7,7.7,159.1,8.3,157.9,9.5z"/>
			<path class="st0" d="M162,17.7c0.3,0,0.4,0.3,0.4,0.7c1.5-1.2,3.8-1.7,4.4-1.7c0.7,0,0.9,0.4,0.6,0.9c-0.5,1-2.5,1.8-4.7,3.3
				c-0.3,0.4-0.5,0.8-0.7,1.2c-1.1,2.4-1.1,5-2,7c-0.7,1.5-2,2.1-2.4,2.1c-1,0-1.5-0.1-1-2.2c0.1-1.3,1.2-4.1,2.4-6.5
				c1.1-2.3,2.2-4.4,2.5-4.6C161.8,17.8,161.9,17.7,162,17.7z"/>
			<path class="st0" d="M176.6,22.6c-1,0-2.3-0.3-2.8-1c-2,1.6-1.5,1.5-2.2,2.7c-1,5.4,11.8,1.8,10.4,4.7c-0.6,1.3-4.3,1.8-6.1,1.8
				c-3.8,0-8.6-3-7.1-6.2c2.1-4.5,8.2-9.1,12.3-9.1c1.5,0,4.1,0.4,3.1,2.6C183,20.5,179.2,22.6,176.6,22.6z M176.5,20.7
				c1.3,0,4-0.4,4.5-2c0.3-0.8-0.8-1-1.5-1c-1.4,0-2.9,0.7-3.6,2.2c-0.1,0.2-0.2,0.4-0.2,0.6C175.8,20.7,176.1,20.7,176.5,20.7z"/>
		</g>
		<g>
			<g>
				<path class="st0" d="M187.2,21c1.4-0.5,3.6-1.7,5-1.9c0.6-0.2,1.1-0.4,1.7-0.6c0.4,1,0.3,1.9-0.3,2.7c-1.1,3-4,5.3-6.3,7.3
					c-0.9,0.8,0.1,2.5,1.2,2.1c3.6-1.3,7.6,2,6.8,5.8c-0.4,1.9-1.6,4-2.7,5.6c-1,1.5-2.2,2.9-3.6,4.2c-0.8,0.8-1.7,1.4-2.6,2
					c-2,1.5-4.2,1.2-6.5-1c-0.2-1.6-2.7-1.6-2.5,0c1.2,11.2,14.6,0.4,17.5-3.9c2.1-3.1,5.1-9,3.6-12.9c-1.8-4.4-7-3.4-10.5-2.2
					c0.4,0.7,0.8,1.4,1.2,2.1c2.8-2.4,9.2-7.9,7.8-12.5c-1.4-4.3-7.9,0-10.3,0.9C185,19.1,185.6,21.5,187.2,21L187.2,21z"/>
			</g>
		</g>
		<g>
			<g>
				<path class="st0" d="M179.8,46.9c2.4-6.1,9.1-10.3,14.4-13.6c4.7-2.8,9.7-5.2,14.6-7.6c1.5-0.7,0.2-2.8-1.3-2.2
					c-10.4,5-25.7,11-30.2,22.6C176.8,47.8,179.2,48.4,179.8,46.9L179.8,46.9z"/>
			</g>
		</g>
	</g>
</g>
</svg>
