<svg id="Capa_1" data-name="Capa 1" xmlns="http://www.w3.org/2000/svg" viewBox="0 0 209.15 51.89"><defs><style>.cls-1{fill:#1d1d1b;}</style></defs><title>nombre</title><path d="M318.66,323.46q15.48-25.08,32.08-49.45l-2.33-.63c.54,9.19-2.21,17.74-5.16,26.32a1.26,1.26,0,0,0,2.09,1.21q10.57-11.9,20-24.73l-2.29-.29c1.63,3.88-3.21,11.13-4.84,14.67l-5.33,11.63c-.48,1,.56,2.45,1.71,1.71l5.76-3.72c1.34-.87.09-3-1.26-2.16l-5.76,3.72,1.71,1.71,7.79-17c1.62-3.52,4.26-7.34,2.64-11.24a1.28,1.28,0,0,0-2.29-.3q-9.26,12.57-19.61,24.22l2.09,1.22c3-8.79,5.81-17.58,5.25-27a1.26,1.26,0,0,0-2.33-.63Q332,297.11,316.5,322.2c-.84,1.37,1.32,2.63,2.16,1.26Z" transform="translate(-316.31 -272.16)"/><path d="M426.16,280.54c.11-.22.21-.44.32-.67a5.11,5.11,0,0,0-2.44-.28c-1,.89-1.3,2.7-1.84,3.91-1,2.21-2,4.39-3.07,6.57-2,4.26-4.12,8.51-5.83,12.92,0,.09,2.31.7,2.49.24,1.53-4,3.36-7.76,5.18-11.57.86-1.78,1.72-3.56,2.55-5.35.73-1.57,1.59-5.21,2.91-6.38l-2.44-.29c-.1.22-.21.44-.32.66,0,0,2.26.73,2.49.24Z" transform="translate(-316.31 -272.16)"/><path d="M412.52,286.41c3.35-2.35,9.49-6.22,13.75-5.56,1.48.22,4.37,3.86,3.81,5.21-.39.93-2.13,2-2.86,2.51a22,22,0,0,1-7.11,3.35c-.93.27-.08,1.9.4,2.18,5.58,3.22,5.61,9.62,5.48,15.29,0,1,1.78,2.57,1.81,1.09.16-7-.3-14.6-7-18.48l.4,2.17c4.55-1.3,15.94-7,11.19-13.41-4.61-6.21-16.52.29-20.94,3.4-.92.65.21,2.87,1.08,2.25Z" transform="translate(-316.31 -272.16)"/><path class="cls-1" d="M371,294.53c-.33.69-.66,1.35-.93,1.89-.54,1.17-.3,1.35.15,1.35.18,0,.45,0,.69,0s1.83.3,1.32,1.38-3.12,2.22-4.26,2.22c-.84,0-1.41-.45-1.2-1.5-2.34,1.92-4.14,2.58-6.18,2.58-1.11,0-3.45-.12-2.52-2.13.18-.39.42-.78.6-1.14a15,15,0,0,1,13.08-8.88c.12,0,0,.12.15.6A6.85,6.85,0,0,1,371,294.53ZM362,299.78c1.86,0,5.07-2.55,6-4.65a1.72,1.72,0,0,0-.18-2.19c-2.7,1.38-5.4,2.76-7,6.21A1.22,1.22,0,0,0,362,299.78Z" transform="translate(-316.31 -272.16)"/><path class="cls-1" d="M384.24,294c-.84,0-1-1.38-2-1.47-.15,0-.27,0-.42,0-2,0-4.59,1.83-5.91,4.71-1.08,2.31-.27,2.67,1.23,3.48a3.05,3.05,0,0,0,1.56,0c2.07-.51,3.18-3,4.68-3h0s1.08,0,.66.9a2.73,2.73,0,0,1-.48.72c-2.88,2.79-4.35,3.39-6.12,3.39-2.82,0-6.12-.69-3.93-5.46,1.65-3.54,6.75-7.83,9.6-7.83,1.08,0,3.54,1.65,2.73,3.39a2.87,2.87,0,0,1-1.17,1A.8.8,0,0,1,384.24,294Z" transform="translate(-316.31 -272.16)"/><path class="cls-1" d="M399.39,292.88c-.63,1.35-1.56,2.7-1.95,3.54-.9,1.92-.21.75.3,2.49a1,1,0,0,1-.09.57,2.46,2.46,0,0,1-2.43,1.47c-.81,0-1.26-.57-.9-1.62a6.69,6.69,0,0,1-4.77,1.29c-.81,0-3.66,0-2.64-2.22,2.79-6.06,8.22-8.55,12-8.55,1.08,0,1.08-.27,1.14.63A6,6,0,0,1,399.39,292.88ZM390.6,298a7.61,7.61,0,0,0,5.73-3.72,1.76,1.76,0,0,0,0-1.95c-2.46,1.2-4.86,1.5-6.78,4.95A1,1,0,0,0,390.6,298Z" transform="translate(-316.31 -272.16)"/><path class="cls-1" d="M441.3,294.53c-.33.69-.66,1.35-.93,1.89-.54,1.17-.3,1.35.15,1.35.18,0,.45,0,.69,0s1.83.3,1.32,1.38-3.12,2.22-4.26,2.22c-.84,0-1.41-.45-1.2-1.5-2.34,1.92-4.14,2.58-6.18,2.58-1.11,0-3.45-.12-2.52-2.13.18-.39.42-.78.6-1.14a15,15,0,0,1,13.08-8.88c.12,0,0,.12.15.6A6.85,6.85,0,0,1,441.3,294.53Zm-8.94,5.25c1.86,0,5.07-2.55,6-4.65a1.72,1.72,0,0,0-.18-2.19c-2.7,1.38-5.4,2.76-7,6.21A1.22,1.22,0,0,0,432.36,299.78Z" transform="translate(-316.31 -272.16)"/><path class="cls-1" d="M455.37,293.36c-.45,1-.6,2.19-1.29,3.51,2.22-1.5,4.26-5.67,7-5.67s1.53,5.64-.21,9.42a8.84,8.84,0,0,1-1.59,2.49c-3.51-.3,4-7.32.33-8.49-5.25,2.28-5.55,5.22-8.07,6.42a3.34,3.34,0,0,1-.51.06c-1,0-1-.48-.78-1.05s.78-1.26,1.29-2.19c.36-.63,1.08-2.19,1.53-3.12s-.18-1-.39-1c-1.83,0-6.48,8.37-8.31,8.37-.27,0-.36-.15-.48-.45-.75-1.5,0-4.05.84-5.91.36-.81,1.17-2.46,1.95-2.46,1.29,0-.78,3.12,0,3.84,2.61-.93,5.43-7.14,7.29-7.14a3.23,3.23,0,0,1,1.8.6C456.12,291.35,455.91,292.25,455.37,293.36Z" transform="translate(-316.31 -272.16)"/><path class="cls-1" d="M470.61,291.11c1.59,0,.9,3.66-.6,6.93-1.35,2.88-3.06,5-4.77,5,0,0-.09,0-.06-.06a26.3,26.3,0,0,1,2.07-6.45c.9-1.92,1.86-3.45,2.7-5.28A1.48,1.48,0,0,1,470.61,291.11Zm3.57-9.45c-1.44,1.32-2.46,2.25-3.69,3.45a5.22,5.22,0,0,1-1.89.51c-.42,0-1.2,0-.87-.51,3.93-5.58,3.33-4.14,5.67-6.21.69.06.93-.39,1.38,0C476,279.83,475.44,280.49,474.18,281.66Z" transform="translate(-316.31 -272.16)"/><path class="cls-1" d="M478.35,289.91c.3,0,.42.27.42.69a9.41,9.41,0,0,1,4.38-1.68c.69,0,.87.36.63.87-.45,1-2.46,1.8-4.68,3.3a9.55,9.55,0,0,0-.69,1.2c-1.14,2.43-1.14,5-2,7a3.44,3.44,0,0,1-2.4,2.1c-1.05,0-1.5-.12-1-2.19a29.61,29.61,0,0,1,2.4-6.54,20.48,20.48,0,0,1,2.55-4.56A.86.86,0,0,1,478.35,289.91Z" transform="translate(-316.31 -272.16)"/><path class="cls-1" d="M492.87,294.77c-1.05,0-2.34-.27-2.76-1-1.95,1.56-1.47,1.53-2.22,2.67-1,5.37,11.79,1.8,10.44,4.71-.57,1.26-4.32,1.77-6.12,1.77-3.84,0-8.61-3-7.14-6.21,2.13-4.53,8.22-9.09,12.3-9.09,1.5,0,4.14.36,3.09,2.61C499.32,292.64,495.48,294.77,492.87,294.77Zm0-1.86c1.29,0,4-.42,4.53-2,.27-.81-.75-1-1.53-1a3.9,3.9,0,0,0-3.63,2.16,2.29,2.29,0,0,0-.18.6C492.12,292.82,492.42,292.91,492.84,292.91Z" transform="translate(-316.31 -272.16)"/><path d="M503.37,292.78c1.4-.53,3.57-1.72,5.05-1.91l1.68-.63a2.42,2.42,0,0,1,.1,3.2c-.94,3-4.09,5.47-6.38,7.47a.88.88,0,0,0,.85,1.46c3.83-1.33,8.1,2.3,7.26,6.22a17.56,17.56,0,0,1-2.78,5.7,22.57,22.57,0,0,1-3.69,4.24c-1.17,1-9.09,7.44-9.83.75-.12-1.1-1.87-1.12-1.75,0,1.18,10.72,14.15-.17,16.78-4.11,2-2.95,5.09-8.82,3.56-12.53-1.72-4.16-6.75-3.09-10-1.95l.85,1.46c2.49-2.18,9.3-7.94,7.67-12.23-1.47-3.83-7.58.33-9.82,1.17-1,.39-.59,2.08.47,1.69Z" transform="translate(-316.31 -272.16)"/><path d="M495.74,319c4.27-10.79,19.53-16.71,29.27-21.35,1-.48.13-2-.88-1.51-10.28,4.9-25.55,10.95-30.07,22.4-.42,1.05,1.27,1.5,1.68.46Z" transform="translate(-316.31 -272.16)"/></svg>